<svg width="60" height="60" viewBox="0 0 60 60" fill="none" xmlns="http://www.w3.org/2000/svg">
<g clip-path="url(#clip0_60_299)">
<path fill-rule="evenodd" clip-rule="evenodd" d="M30.0006 1.25C22.8787 1.2537 15.9903 3.77615 10.5671 8.36631C5.14396 12.9565 1.5397 19.315 0.3988 26.305C-0.742097 33.295 0.654756 40.4605 4.33962 46.5204C8.02447 52.5803 13.757 57.1394 20.5123 59.3824C22.0026 59.659 22.5639 58.7354 22.5639 57.95C22.5639 57.1646 22.5341 54.8875 22.5242 52.398C14.1784 54.2009 12.4149 48.8762 12.4149 48.8762C11.0537 45.4186 9.08653 44.5097 9.08653 44.5097C6.36423 42.6624 9.29022 42.697 9.29022 42.697C12.3056 42.9094 13.8903 45.7742 13.8903 45.7742C16.563 50.3334 20.9097 49.0145 22.6186 48.244C22.8868 46.3126 23.6668 44.9987 24.5262 44.2529C17.8595 43.5021 10.855 40.9434 10.855 29.5136C10.8137 26.5493 11.92 23.6826 13.945 21.5067C13.637 20.7559 12.6086 17.7231 14.238 13.6036C14.238 13.6036 16.7567 12.8034 22.4894 16.6611C27.4066 15.3241 32.5946 15.3241 37.5118 16.6611C43.2395 12.8034 45.7532 13.6036 45.7532 13.6036C47.3876 17.7132 46.3593 20.746 46.0513 21.5067C48.0826 23.683 49.1912 26.5546 49.1461 29.5234C49.1461 40.978 42.1268 43.5021 35.4502 44.2381C36.5232 45.1667 37.482 46.9795 37.482 49.7653C37.482 53.7564 37.4472 56.967 37.4472 57.95C37.4472 58.7452 37.9887 59.6739 39.5088 59.3824C46.2648 57.1391 51.9979 52.5793 55.6827 46.5183C59.3675 40.4574 60.7636 33.2907 59.6215 26.3001C58.4793 19.3095 54.8732 12.9509 49.4483 8.36151C44.0233 3.77214 37.1333 1.25135 30.0105 1.25H30.0006Z" fill="white"/>
<path d="M20.0696 49.9382C20.0696 50.1802 19.7914 50.3877 19.4337 50.3926C19.0761 50.3976 18.783 50.2 18.783 49.9579C18.783 49.7159 19.0611 49.5085 19.4188 49.5035C19.7765 49.4986 20.0696 49.6912 20.0696 49.9382Z" fill="white"/>
<path d="M22.3547 49.5578C22.3994 49.7998 22.1511 50.0517 21.7934 50.111C21.4357 50.1703 21.1227 50.027 21.078 49.7899C21.0333 49.5529 21.2916 49.296 21.6394 49.2318C21.9871 49.1676 22.31 49.3158 22.3547 49.5578Z" fill="white"/>
<path d="M17.6154 49.7702C17.5409 50.0024 17.2031 50.1061 16.8653 50.0073C16.5275 49.9085 16.304 49.6319 16.3685 49.3948C16.4331 49.1577 16.7759 49.0491 17.1187 49.1577C17.4614 49.2664 17.68 49.5282 17.6154 49.7702Z" fill="white"/>
<path d="M15.3652 48.8021C15.2012 48.9849 14.8684 48.9355 14.5952 48.6885C14.322 48.4415 14.2574 48.1056 14.4213 47.9278C14.5852 47.75 14.9181 47.7994 15.2012 48.0414C15.4844 48.2835 15.539 48.6243 15.3652 48.8021V48.8021Z" fill="white"/>
<path d="M13.7607 47.1425C13.5769 47.2709 13.2639 47.1425 13.09 46.8856C13.0419 46.8395 13.0037 46.7843 12.9776 46.7232C12.9515 46.6621 12.938 46.5964 12.938 46.53C12.938 46.4636 12.9515 46.3979 12.9776 46.3367C13.0037 46.2756 13.0419 46.2204 13.09 46.1743C13.2738 46.0508 13.5868 46.1743 13.7607 46.4262C13.9345 46.6781 13.9395 47.014 13.7607 47.1425V47.1425Z" fill="white"/>
<path d="M12.5782 45.4285C12.4753 45.48 12.3576 45.4944 12.2452 45.4692C12.1329 45.4439 12.0328 45.3807 11.9622 45.2902C11.7685 45.0827 11.7287 44.7962 11.8777 44.6678C12.0268 44.5394 12.295 44.5986 12.4888 44.8061C12.6825 45.0136 12.7272 45.3 12.5782 45.4285Z" fill="white"/>
<path d="M11.3612 44.0801C11.2966 44.2283 11.0581 44.2727 10.8644 44.169C10.6706 44.0653 10.5266 43.8726 10.5961 43.7195C10.6657 43.5664 10.8992 43.5269 11.0929 43.6306C11.2866 43.7343 11.4357 43.9319 11.3612 44.0801Z" fill="white"/>
</g>
<defs>
<clipPath id="clip0_60_299">
<rect width="60" height="60" fill="white"/>
</clipPath>
</defs>
</svg>
